<mxfile host="65bd71144e">
    <diagram id="r2yGcMiaucYsfMNacY3O" name="Page-1">
        <mxGraphModel dx="557" dy="575" grid="0" gridSize="10" guides="1" tooltips="1" connect="1" arrows="1" fold="1" page="1" pageScale="1" pageWidth="1169" pageHeight="827" background="#424C55" math="0" shadow="0">
            <root>
                <mxCell id="0"/>
                <mxCell id="1" parent="0"/>
                <mxCell id="46" value="" style="edgeStyle=none;html=1;labelBackgroundColor=none;fontSize=14;rounded=0;strokeColor=#827F80;fontColor=#FCF7F8;fillColor=#29A8CF;entryX=0.987;entryY=0.097;entryDx=0;entryDy=0;entryPerimeter=0;" parent="1" source="2" target="04Kygq_T-jCccj1uXCnx-8" edge="1">
                    <mxGeometry relative="1" as="geometry">
                        <mxPoint x="495" y="50" as="targetPoint"/>
                    </mxGeometry>
                </mxCell>
                <mxCell id="2" value="&lt;font style=&quot;font-size: 18px&quot;&gt;App&lt;/font&gt;" style="rounded=0;whiteSpace=wrap;html=1;labelBackgroundColor=none;fontSize=14;fillColor=#29A8CF;fontColor=#FCF7F8;endArrow=classic;strokeColor=#827F80;" parent="1" vertex="1">
                    <mxGeometry x="533" y="20" width="120" height="60" as="geometry"/>
                </mxCell>
                <mxCell id="3" value="" style="endArrow=classic;html=1;fontSize=14;exitX=1;exitY=1;exitDx=0;exitDy=0;entryX=0;entryY=0;entryDx=0;entryDy=0;labelBackgroundColor=none;fillColor=#29A8CF;rounded=0;fontColor=#FCF7F8;strokeColor=#827F80;" parent="1" source="2" target="5" edge="1">
                    <mxGeometry relative="1" as="geometry">
                        <mxPoint x="569" y="130" as="sourcePoint"/>
                        <mxPoint x="669" y="130" as="targetPoint"/>
                    </mxGeometry>
                </mxCell>
                <mxCell id="4" value="Props:&lt;br&gt;setActivePage&amp;nbsp;" style="edgeLabel;resizable=0;html=1;align=center;verticalAlign=middle;fontSize=14;labelBackgroundColor=none;fillColor=#29A8CF;strokeColor=#827F80;rounded=0;fontColor=#FCF7F8;endArrow=classic;" parent="3" connectable="0" vertex="1">
                    <mxGeometry relative="1" as="geometry"/>
                </mxCell>
                <mxCell id="04Kygq_T-jCccj1uXCnx-8" value="State" style="swimlane;fontStyle=0;childLayout=stackLayout;horizontal=1;startSize=30;horizontalStack=0;resizeParent=1;resizeParentMax=0;resizeLast=0;collapsible=1;marginBottom=0;labelBackgroundColor=none;fontSize=14;fillColor=#29A8CF;rounded=0;fontColor=#FCF7F8;endArrow=classic;strokeColor=#827F80;" parent="1" vertex="1">
                    <mxGeometry x="20" y="10" width="190" height="180" as="geometry">
                        <mxRectangle x="10" y="10" width="60" height="30" as="alternateBounds"/>
                    </mxGeometry>
                </mxCell>
                <mxCell id="04Kygq_T-jCccj1uXCnx-13" value="Active Category" style="text;strokeColor=#827F80;fillColor=none;align=center;verticalAlign=middle;spacingLeft=4;spacingRight=4;overflow=hidden;points=[[0,0.5],[1,0.5]];portConstraint=eastwest;rotatable=0;labelBackgroundColor=none;fontSize=14;rounded=0;fontColor=#FCF7F8;endArrow=classic;" parent="04Kygq_T-jCccj1uXCnx-8" vertex="1">
                    <mxGeometry y="30" width="190" height="30" as="geometry"/>
                </mxCell>
                <mxCell id="04Kygq_T-jCccj1uXCnx-11" value="Active Page" style="text;strokeColor=#827F80;fillColor=none;align=center;verticalAlign=middle;spacingLeft=4;spacingRight=4;overflow=hidden;points=[[0,0.5],[1,0.5]];portConstraint=eastwest;rotatable=0;labelBackgroundColor=none;fontSize=14;rounded=0;fontColor=#FCF7F8;endArrow=classic;" parent="04Kygq_T-jCccj1uXCnx-8" vertex="1">
                    <mxGeometry y="60" width="190" height="30" as="geometry"/>
                </mxCell>
                <mxCell id="04Kygq_T-jCccj1uXCnx-12" value="Categories" style="text;strokeColor=#827F80;fillColor=none;align=center;verticalAlign=middle;spacingLeft=4;spacingRight=4;overflow=hidden;points=[[0,0.5],[1,0.5]];portConstraint=eastwest;rotatable=0;labelBackgroundColor=none;fontSize=14;rounded=0;fontColor=#FCF7F8;endArrow=classic;" parent="04Kygq_T-jCccj1uXCnx-8" vertex="1">
                    <mxGeometry y="90" width="190" height="30" as="geometry"/>
                </mxCell>
                <mxCell id="04Kygq_T-jCccj1uXCnx-10" value="Form Return Data" style="text;strokeColor=#827F80;fillColor=none;align=center;verticalAlign=middle;spacingLeft=4;spacingRight=4;overflow=hidden;points=[[0,0.5],[1,0.5]];portConstraint=eastwest;rotatable=0;labelBackgroundColor=none;fontSize=14;rounded=0;fontColor=#FCF7F8;endArrow=classic;" parent="04Kygq_T-jCccj1uXCnx-8" vertex="1">
                    <mxGeometry y="120" width="190" height="30" as="geometry"/>
                </mxCell>
                <mxCell id="04Kygq_T-jCccj1uXCnx-9" value="Resource Links (useEffect)" style="text;strokeColor=#827F80;fillColor=none;align=center;verticalAlign=middle;spacingLeft=4;spacingRight=4;overflow=hidden;points=[[0,0.5],[1,0.5]];portConstraint=eastwest;rotatable=0;labelBackgroundColor=none;fontSize=14;rounded=0;fontColor=#FCF7F8;endArrow=classic;" parent="04Kygq_T-jCccj1uXCnx-8" vertex="1">
                    <mxGeometry y="150" width="190" height="30" as="geometry"/>
                </mxCell>
                <mxCell id="5" value="&lt;font style=&quot;font-size: 18px&quot;&gt;NavBar&lt;/font&gt;" style="rounded=0;whiteSpace=wrap;html=1;fontSize=14;labelBackgroundColor=none;fillColor=#29A8CF;fontColor=#FCF7F8;endArrow=classic;strokeColor=#827F80;" parent="1" vertex="1">
                    <mxGeometry x="920" y="100" width="120" height="60" as="geometry"/>
                </mxCell>
                <mxCell id="6" value="(Conditionally render the correct Page)" style="rounded=0;whiteSpace=wrap;html=1;fontSize=14;labelBackgroundColor=none;fillColor=#29A8CF;fontColor=#FCF7F8;endArrow=classic;strokeColor=#827F80;" parent="1" vertex="1">
                    <mxGeometry x="533" y="140" width="120" height="60" as="geometry"/>
                </mxCell>
                <mxCell id="7" value="" style="endArrow=classic;html=1;fontSize=14;exitX=0.5;exitY=1;exitDx=0;exitDy=0;entryX=0.5;entryY=0;entryDx=0;entryDy=0;labelBackgroundColor=none;fillColor=#29A8CF;rounded=0;fontColor=#FCF7F8;strokeColor=#827F80;" parent="1" source="2" target="6" edge="1">
                    <mxGeometry relative="1" as="geometry">
                        <mxPoint x="809" y="230" as="sourcePoint"/>
                        <mxPoint x="909" y="230" as="targetPoint"/>
                    </mxGeometry>
                </mxCell>
                <mxCell id="49" value="" style="edgeStyle=none;html=1;labelBackgroundColor=none;fontSize=14;rounded=0;strokeColor=#827F80;fontColor=#FCF7F8;fillColor=#29A8CF;" parent="1" source="9" target="48" edge="1">
                    <mxGeometry relative="1" as="geometry"/>
                </mxCell>
                <mxCell id="9" value="&lt;font style=&quot;font-size: 18px&quot;&gt;Home Page&lt;/font&gt;" style="rounded=0;whiteSpace=wrap;html=1;fontSize=14;labelBackgroundColor=none;fillColor=#29A8CF;fontColor=#FCF7F8;endArrow=classic;strokeColor=#827F80;" parent="1" vertex="1">
                    <mxGeometry x="124" y="260" width="120" height="60" as="geometry"/>
                </mxCell>
                <mxCell id="42" value="" style="edgeStyle=none;html=1;fontSize=14;labelBackgroundColor=none;fillColor=#29A8CF;rounded=0;fontColor=#FCF7F8;strokeColor=#827F80;" parent="1" source="10" target="40" edge="1">
                    <mxGeometry relative="1" as="geometry"/>
                </mxCell>
                <mxCell id="10" value="&lt;font style=&quot;font-size: 18px&quot;&gt;Search Page&lt;/font&gt;" style="rounded=0;whiteSpace=wrap;html=1;fontSize=14;labelBackgroundColor=none;fillColor=#29A8CF;fontColor=#FCF7F8;endArrow=classic;strokeColor=#827F80;" parent="1" vertex="1">
                    <mxGeometry x="532.5" y="260" width="120" height="60" as="geometry"/>
                </mxCell>
                <mxCell id="11" value="&lt;font style=&quot;font-size: 18px&quot;&gt;Submit Page&lt;/font&gt;" style="rounded=0;whiteSpace=wrap;html=1;fontSize=14;labelBackgroundColor=none;fillColor=#29A8CF;fontColor=#FCF7F8;endArrow=classic;strokeColor=#827F80;" parent="1" vertex="1">
                    <mxGeometry x="920" y="260" width="120" height="60" as="geometry"/>
                </mxCell>
                <mxCell id="12" value="&lt;font style=&quot;font-size: 18px&quot;&gt;Category Bar&lt;/font&gt;" style="rounded=0;whiteSpace=wrap;html=1;fontSize=14;labelBackgroundColor=none;fillColor=#29A8CF;fontColor=#FCF7F8;endArrow=classic;strokeColor=#827F80;" parent="1" vertex="1">
                    <mxGeometry x="20" y="450" width="120" height="60" as="geometry"/>
                </mxCell>
                <mxCell id="13" value="&lt;font style=&quot;font-size: 18px&quot;&gt;Collapsible Links&lt;/font&gt;" style="rounded=0;whiteSpace=wrap;html=1;fontSize=14;labelBackgroundColor=none;fillColor=#29A8CF;fontColor=#FCF7F8;endArrow=classic;strokeColor=#827F80;" parent="1" vertex="1">
                    <mxGeometry x="200" y="450" width="120" height="60" as="geometry"/>
                </mxCell>
                <mxCell id="04Kygq_T-jCccj1uXCnx-44" style="edgeStyle=none;html=1;exitX=1;exitY=0.5;exitDx=0;exitDy=0;entryX=0;entryY=0.5;entryDx=0;entryDy=0;fontSize=14;labelBackgroundColor=none;fillColor=#29A8CF;rounded=0;fontColor=#FCF7F8;strokeColor=#827F80;" parent="1" source="14" target="04Kygq_T-jCccj1uXCnx-42" edge="1">
                    <mxGeometry relative="1" as="geometry"/>
                </mxCell>
                <mxCell id="14" value="&lt;font style=&quot;font-size: 18px&quot;&gt;Submission &lt;br&gt;Form&lt;/font&gt;" style="rounded=0;whiteSpace=wrap;html=1;fontSize=14;labelBackgroundColor=none;fillColor=#29A8CF;fontColor=#FCF7F8;endArrow=classic;strokeColor=#827F80;" parent="1" vertex="1">
                    <mxGeometry x="800" y="450" width="120" height="60" as="geometry"/>
                </mxCell>
                <mxCell id="15" value="&lt;font style=&quot;font-size: 18px&quot;&gt;Submission&lt;br&gt;Result&lt;/font&gt;" style="rounded=0;whiteSpace=wrap;html=1;fontSize=14;fillColor=#29A8CF;labelBackgroundColor=none;fontColor=#FCF7F8;endArrow=classic;strokeColor=#827F80;" parent="1" vertex="1">
                    <mxGeometry x="1040" y="450" width="120" height="60" as="geometry"/>
                </mxCell>
                <mxCell id="44" value="" style="edgeStyle=none;html=1;fontSize=14;labelBackgroundColor=none;fillColor=#29A8CF;rounded=0;fontColor=#FCF7F8;strokeColor=#827F80;" parent="1" source="17" target="43" edge="1">
                    <mxGeometry relative="1" as="geometry"/>
                </mxCell>
                <mxCell id="17" value="&lt;font style=&quot;font-size: 18px&quot;&gt;Search Input&lt;/font&gt;" style="rounded=0;whiteSpace=wrap;html=1;fontSize=14;labelBackgroundColor=none;fillColor=#29A8CF;fontColor=#FCF7F8;endArrow=classic;strokeColor=#827F80;" parent="1" vertex="1">
                    <mxGeometry x="380" y="450" width="120" height="60" as="geometry"/>
                </mxCell>
                <mxCell id="18" value="&lt;font style=&quot;font-size: 18px&quot;&gt;Result List&lt;/font&gt;" style="rounded=0;whiteSpace=wrap;html=1;fontSize=14;labelBackgroundColor=none;fillColor=#29A8CF;fontColor=#FCF7F8;endArrow=classic;strokeColor=#827F80;" parent="1" vertex="1">
                    <mxGeometry x="620" y="450" width="120" height="60" as="geometry"/>
                </mxCell>
                <mxCell id="19" value="&lt;font style=&quot;font-size: 18px&quot;&gt;Result&lt;/font&gt;" style="rounded=0;whiteSpace=wrap;html=1;fontSize=14;labelBackgroundColor=none;fillColor=#29A8CF;fontColor=#FCF7F8;endArrow=classic;strokeColor=#827F80;" parent="1" vertex="1">
                    <mxGeometry x="620" y="600" width="120" height="60" as="geometry"/>
                </mxCell>
                <mxCell id="20" value="" style="endArrow=classic;html=1;fontSize=14;exitX=1;exitY=1;exitDx=0;exitDy=0;entryX=0;entryY=0;entryDx=0;entryDy=0;labelBackgroundColor=none;fillColor=#29A8CF;rounded=0;fontColor=#FCF7F8;strokeColor=#827F80;" parent="1" source="6" target="11" edge="1">
                    <mxGeometry relative="1" as="geometry">
                        <mxPoint x="809" y="230" as="sourcePoint"/>
                        <mxPoint x="909" y="230" as="targetPoint"/>
                    </mxGeometry>
                </mxCell>
                <mxCell id="21" value="Props:&lt;br&gt;formReturnData&lt;br&gt;setFormReturnData&lt;br&gt;categories" style="edgeLabel;resizable=0;html=1;align=center;verticalAlign=middle;fontSize=14;labelBackgroundColor=none;fillColor=#29A8CF;strokeColor=#827F80;rounded=0;fontColor=#FCF7F8;endArrow=classic;" parent="20" connectable="0" vertex="1">
                    <mxGeometry relative="1" as="geometry"/>
                </mxCell>
                <mxCell id="22" value="" style="endArrow=classic;html=1;fontSize=14;exitX=0.5;exitY=1;exitDx=0;exitDy=0;labelBackgroundColor=none;fillColor=#29A8CF;rounded=0;fontColor=#FCF7F8;strokeColor=#827F80;" parent="1" source="6" target="10" edge="1">
                    <mxGeometry relative="1" as="geometry">
                        <mxPoint x="663" y="210" as="sourcePoint"/>
                        <mxPoint x="819" y="270" as="targetPoint"/>
                    </mxGeometry>
                </mxCell>
                <mxCell id="24" value="" style="endArrow=classic;html=1;fontSize=14;exitX=0;exitY=1;exitDx=0;exitDy=0;entryX=1;entryY=0;entryDx=0;entryDy=0;labelBackgroundColor=none;fillColor=#29A8CF;rounded=0;fontColor=#FCF7F8;strokeColor=#827F80;" parent="1" source="6" target="9" edge="1">
                    <mxGeometry relative="1" as="geometry">
                        <mxPoint x="673" y="220" as="sourcePoint"/>
                        <mxPoint x="829" y="280" as="targetPoint"/>
                    </mxGeometry>
                </mxCell>
                <mxCell id="25" value="Props:&lt;br&gt;categories&lt;br&gt;setCategories&lt;br&gt;activeCategory&lt;br&gt;setActiveCategory" style="edgeLabel;resizable=0;html=1;align=center;verticalAlign=middle;fontSize=14;labelBackgroundColor=none;fillColor=#29A8CF;strokeColor=#827F80;rounded=0;fontColor=#FCF7F8;endArrow=classic;" parent="24" connectable="0" vertex="1">
                    <mxGeometry relative="1" as="geometry">
                        <mxPoint x="-62" as="offset"/>
                    </mxGeometry>
                </mxCell>
                <mxCell id="26" value="" style="endArrow=classic;html=1;fontSize=14;exitX=0.25;exitY=1;exitDx=0;exitDy=0;entryX=0.558;entryY=-0.017;entryDx=0;entryDy=0;entryPerimeter=0;labelBackgroundColor=none;fillColor=#29A8CF;rounded=0;fontColor=#FCF7F8;strokeColor=#827F80;" parent="1" source="10" target="17" edge="1">
                    <mxGeometry relative="1" as="geometry">
                        <mxPoint x="683" y="230" as="sourcePoint"/>
                        <mxPoint x="549" y="350" as="targetPoint"/>
                    </mxGeometry>
                </mxCell>
                <mxCell id="27" value="Props:&lt;br&gt;dispatch" style="edgeLabel;resizable=0;html=1;align=center;verticalAlign=middle;fontSize=14;labelBackgroundColor=none;fillColor=#29A8CF;strokeColor=#827F80;rounded=0;fontColor=#FCF7F8;endArrow=classic;" parent="26" connectable="0" vertex="1">
                    <mxGeometry relative="1" as="geometry"/>
                </mxCell>
                <mxCell id="28" value="" style="endArrow=classic;html=1;fontSize=14;exitX=0.75;exitY=1;exitDx=0;exitDy=0;entryX=0.5;entryY=0;entryDx=0;entryDy=0;labelBackgroundColor=none;fillColor=#29A8CF;rounded=0;fontColor=#FCF7F8;strokeColor=#827F80;" parent="1" source="10" target="18" edge="1">
                    <mxGeometry relative="1" as="geometry">
                        <mxPoint x="572.5" y="330" as="sourcePoint"/>
                        <mxPoint x="535.96" y="408.98" as="targetPoint"/>
                    </mxGeometry>
                </mxCell>
                <mxCell id="29" value="Props:&lt;br&gt;state (search results)" style="edgeLabel;resizable=0;html=1;align=center;verticalAlign=middle;fontSize=14;labelBackgroundColor=none;fillColor=#29A8CF;strokeColor=#827F80;rounded=0;fontColor=#FCF7F8;endArrow=classic;" parent="28" connectable="0" vertex="1">
                    <mxGeometry relative="1" as="geometry"/>
                </mxCell>
                <mxCell id="04Kygq_T-jCccj1uXCnx-30" value="" style="endArrow=classic;html=1;labelBackgroundColor=none;fontSize=14;fillColor=#29A8CF;rounded=0;fontColor=#FCF7F8;strokeColor=#827F80;" parent="1" source="10" edge="1">
                    <mxGeometry width="50" height="50" relative="1" as="geometry">
                        <mxPoint x="579" y="310" as="sourcePoint"/>
                        <mxPoint x="629" y="260" as="targetPoint"/>
                    </mxGeometry>
                </mxCell>
                <mxCell id="30" value="" style="endArrow=classic;html=1;fontSize=14;exitX=0.25;exitY=1;exitDx=0;exitDy=0;entryX=0.5;entryY=0;entryDx=0;entryDy=0;labelBackgroundColor=none;fillColor=#29A8CF;rounded=0;fontColor=#FCF7F8;strokeColor=#827F80;" parent="1" source="11" target="14" edge="1">
                    <mxGeometry relative="1" as="geometry">
                        <mxPoint x="582.5" y="340" as="sourcePoint"/>
                        <mxPoint x="545.96" y="418.98" as="targetPoint"/>
                    </mxGeometry>
                </mxCell>
                <mxCell id="31" value="Props:&lt;br&gt;setFormReturnData&lt;br&gt;categories" style="edgeLabel;resizable=0;html=1;align=center;verticalAlign=middle;fontSize=14;labelBackgroundColor=none;fillColor=#29A8CF;strokeColor=#827F80;rounded=0;fontColor=#FCF7F8;endArrow=classic;" parent="30" connectable="0" vertex="1">
                    <mxGeometry relative="1" as="geometry"/>
                </mxCell>
                <mxCell id="32" value="" style="endArrow=classic;html=1;fontSize=14;exitX=0.75;exitY=1;exitDx=0;exitDy=0;entryX=0.5;entryY=0;entryDx=0;entryDy=0;labelBackgroundColor=none;fillColor=#29A8CF;rounded=0;fontColor=#FCF7F8;strokeColor=#827F80;" parent="1" source="11" target="15" edge="1">
                    <mxGeometry relative="1" as="geometry">
                        <mxPoint x="592.5" y="350" as="sourcePoint"/>
                        <mxPoint x="555.96" y="428.98" as="targetPoint"/>
                    </mxGeometry>
                </mxCell>
                <mxCell id="33" value="Props:&lt;br&gt;formReturnData" style="edgeLabel;resizable=0;html=1;align=center;verticalAlign=middle;fontSize=14;labelBackgroundColor=none;fillColor=#29A8CF;strokeColor=#827F80;rounded=0;fontColor=#FCF7F8;endArrow=classic;" parent="32" connectable="0" vertex="1">
                    <mxGeometry relative="1" as="geometry"/>
                </mxCell>
                <mxCell id="34" value="" style="endArrow=classic;html=1;fontSize=14;exitX=0.75;exitY=1;exitDx=0;exitDy=0;entryX=0.5;entryY=0;entryDx=0;entryDy=0;labelBackgroundColor=none;fillColor=#29A8CF;rounded=0;fontColor=#FCF7F8;strokeColor=#827F80;" parent="1" source="9" target="13" edge="1">
                    <mxGeometry relative="1" as="geometry">
                        <mxPoint x="602.5" y="360" as="sourcePoint"/>
                        <mxPoint x="565.96" y="438.98" as="targetPoint"/>
                    </mxGeometry>
                </mxCell>
                <mxCell id="35" value="Props:&lt;br&gt;activeContent&lt;br&gt;(category filter&lt;br&gt;from resourceLinks)" style="edgeLabel;resizable=0;html=1;align=center;verticalAlign=middle;fontSize=14;labelBackgroundColor=none;fillColor=#29A8CF;strokeColor=#827F80;rounded=0;fontColor=#FCF7F8;endArrow=classic;" parent="34" connectable="0" vertex="1">
                    <mxGeometry relative="1" as="geometry">
                        <mxPoint x="29" y="-2" as="offset"/>
                    </mxGeometry>
                </mxCell>
                <mxCell id="36" value="" style="endArrow=classic;html=1;fontSize=14;exitX=0.25;exitY=1;exitDx=0;exitDy=0;entryX=0.5;entryY=0;entryDx=0;entryDy=0;labelBackgroundColor=none;fillColor=#29A8CF;rounded=0;fontColor=#FCF7F8;strokeColor=#827F80;" parent="1" source="9" target="12" edge="1">
                    <mxGeometry relative="1" as="geometry">
                        <mxPoint x="612.5" y="370" as="sourcePoint"/>
                        <mxPoint x="575.96" y="448.98" as="targetPoint"/>
                    </mxGeometry>
                </mxCell>
                <mxCell id="37" value="Props:&lt;br&gt;categories&lt;br&gt;activeCategory&lt;br&gt;handleToggle" style="edgeLabel;resizable=0;html=1;align=center;verticalAlign=middle;fontSize=14;labelBackgroundColor=none;fillColor=#29A8CF;strokeColor=#827F80;rounded=0;fontColor=#FCF7F8;endArrow=classic;" parent="36" connectable="0" vertex="1">
                    <mxGeometry relative="1" as="geometry"/>
                </mxCell>
                <mxCell id="38" value="" style="endArrow=classic;html=1;fontSize=14;exitX=0.5;exitY=1;exitDx=0;exitDy=0;entryX=0.5;entryY=0;entryDx=0;entryDy=0;labelBackgroundColor=none;fillColor=#29A8CF;rounded=0;fontColor=#FCF7F8;strokeColor=#827F80;" parent="1" source="18" target="19" edge="1">
                    <mxGeometry relative="1" as="geometry">
                        <mxPoint x="622.5" y="380" as="sourcePoint"/>
                        <mxPoint x="585.96" y="458.98" as="targetPoint"/>
                    </mxGeometry>
                </mxCell>
                <mxCell id="39" value="Props:&lt;br&gt;result" style="edgeLabel;resizable=0;html=1;align=center;verticalAlign=middle;fontSize=14;labelBackgroundColor=none;fillColor=#29A8CF;strokeColor=#827F80;rounded=0;fontColor=#FCF7F8;endArrow=classic;" parent="38" connectable="0" vertex="1">
                    <mxGeometry relative="1" as="geometry"/>
                </mxCell>
                <mxCell id="40" value="&lt;font style=&quot;font-size: 12px&quot;&gt;State:&lt;br&gt;&lt;span style=&quot;text-align: left&quot;&gt;Search Results (useReducer)&lt;/span&gt;&lt;/font&gt;" style="rounded=0;whiteSpace=wrap;html=1;fontSize=14;labelBackgroundColor=none;fillColor=#29A8CF;fontColor=#FCF7F8;endArrow=classic;strokeColor=#827F80;" parent="1" vertex="1">
                    <mxGeometry x="410" y="255" width="100" height="70" as="geometry"/>
                </mxCell>
                <mxCell id="04Kygq_T-jCccj1uXCnx-42" value="&lt;font style=&quot;font-size: 12px&quot;&gt;State:&lt;br&gt;&lt;span style=&quot;text-align: left&quot;&gt;category&lt;br&gt;link&lt;br&gt;description&lt;br&gt;name&lt;br&gt;&lt;/span&gt;&lt;/font&gt;" style="rounded=0;whiteSpace=wrap;html=1;fontSize=14;labelBackgroundColor=none;fillColor=#29A8CF;fontColor=#FCF7F8;endArrow=classic;strokeColor=#827F80;" parent="1" vertex="1">
                    <mxGeometry x="935" y="436.25" width="90" height="87.5" as="geometry"/>
                </mxCell>
                <mxCell id="43" value="&lt;font style=&quot;font-size: 12px&quot;&gt;State:&lt;br&gt;&lt;span style=&quot;text-align: left&quot;&gt;text&lt;br&gt;&lt;/span&gt;&lt;/font&gt;" style="rounded=0;whiteSpace=wrap;html=1;fontSize=14;labelBackgroundColor=none;fillColor=#29A8CF;fontColor=#FCF7F8;endArrow=classic;strokeColor=#827F80;" parent="1" vertex="1">
                    <mxGeometry x="525" y="453.13" width="60" height="53.75" as="geometry"/>
                </mxCell>
                <mxCell id="48" value="&lt;font style=&quot;font-size: 12px&quot;&gt;State:&lt;br&gt;&lt;span style=&quot;text-align: left&quot;&gt;resourceLinks&lt;/span&gt;&lt;/font&gt;" style="rounded=0;whiteSpace=wrap;html=1;fontSize=14;labelBackgroundColor=none;fillColor=#29A8CF;fontColor=#FCF7F8;endArrow=classic;strokeColor=#827F80;" parent="1" vertex="1">
                    <mxGeometry x="9" y="262" width="78" height="56" as="geometry"/>
                </mxCell>
            </root>
        </mxGraphModel>
    </diagram>
</mxfile>